<svg version="1.1" xmlns="http://www.w3.org/2000/svg" viewBox="0 0 72.00003051757812 70.00001525878906" width="72.00003051757812" height="70.00001525878906">
  <!-- svg-source:excalidraw -->
  
  <defs>
    <style class="style-fonts">
      @font-face {
        font-family: "Virgil";
        src: url("https://www.jyshare.com/more/excalidraw//dist/excalidraw-assets/Virgil.woff2");
      }
      @font-face {
        font-family: "Cascadia";
        src: url("https://www.jyshare.com/more/excalidraw//dist/excalidraw-assets/Cascadia.woff2");
      }
      @font-face {
        font-family: "Assistant";
        src: url("https://www.jyshare.com/more/excalidraw//dist/excalidraw-assets/Assistant-Regular.woff2");
      }
    </style>
    
  </defs>
  <g stroke-linecap="round" transform="translate(10 10) rotate(0 26.000015258789062 25.00000762939453)"><path d="M12.5 0 C21.1 -1.86, 28.68 4.05, 39.5 0 C46.85 -3.37, 51.6 3.44, 52 12.5 C52.49 17.06, 53.93 23.74, 52 37.5 C52.14 48.27, 47.17 51.25, 39.5 50 C29.03 53.62, 16.39 47.91, 12.5 50 C2.9 50.88, 3.44 48.36, 0 37.5 C-3.06 28.09, 1.78 22.01, 0 12.5 C3.36 7.74, 2.28 -0.1, 12.5 0" stroke="none" stroke-width="0" fill="#ffec99"></path><path d="M12.5 0 C19.51 1.6, 23.68 0.09, 39.5 0 M12.5 0 C23.64 0.05, 33.8 0.41, 39.5 0 M39.5 0 C49.39 -1.26, 53.4 5.54, 52 12.5 M39.5 0 C48.64 1.26, 49.75 5.31, 52 12.5 M52 12.5 C51.27 20.08, 51.3 29.27, 52 37.5 M52 12.5 C52.75 21.69, 51.94 29.15, 52 37.5 M52 37.5 C51.61 47.76, 45.86 50.36, 39.5 50 M52 37.5 C52.75 45.59, 45.76 48.65, 39.5 50 M39.5 50 C28.88 50.47, 16.79 48.6, 12.5 50 M39.5 50 C30.64 50.32, 23.24 50.37, 12.5 50 M12.5 50 C5.67 48.9, 0.27 45.01, 0 37.5 M12.5 50 C5.16 47.72, 2.3 45.53, 0 37.5 M0 37.5 C-1.3 31.33, -0.48 26.49, 0 12.5 M0 37.5 C-0.38 28.67, 0.04 20.33, 0 12.5 M0 12.5 C-1.67 3.43, 2.17 -1.19, 12.5 0 M0 12.5 C0.71 3.65, 5.07 1.85, 12.5 0" stroke="#1e1e1e" stroke-width="2" fill="none"></path></g><g transform="translate(23.3333740234375 20.000015258789062) rotate(0 14.400000000000006 18)"><text x="0" y="0" font-family="Virgil, Segoe UI Emoji" font-size="28.800000000000008px" fill="#1e1e1e" text-anchor="start" style="white-space: pre;" direction="ltr" dominant-baseline="text-before-edge">工</text></g></svg>